# Blender v2.72 (sub 0) OBJ File: 'dodecahedron.blend'
# www.blender.org
mtllib dodecahedron.mtl
o Dodecahedron_DodecahedronMesh
v 0.000000 4.236068 -1.618034
v 0.000000 4.236068 1.618034
v 2.618034 2.618034 -2.618034
v -2.618034 2.618034 -2.618034
v -2.618034 2.618034 2.618034
v 2.618034 2.618034 2.618034
v 4.236068 1.618034 0.000000
v -4.236068 1.618034 0.000000
v 1.618034 0.000000 -4.236068
v -1.618034 0.000000 -4.236068
v -1.618034 0.000000 4.236068
v 1.618034 0.000000 4.236068
v 4.236068 -1.618034 0.000000
v -4.236068 -1.618034 0.000000
v 2.618034 -2.618034 -2.618034
v -2.618034 -2.618034 -2.618034
v -2.618034 -2.618034 2.618034
v 2.618034 -2.618034 2.618034
v 0.000000 -4.236068 -1.618034
v 0.000000 -4.236068 1.618034
vt 0.411943 0.765521
vt 0.259792 0.716027
vt 0.259847 0.556028
vt 0.506638 0.636080
vt 0.600683 0.506638
vt 0.752851 0.556081
vt 0.209796 0.494051
vt 0.259186 0.646235
vt 0.129712 0.740236
vt 0.753484 0.456590
vt 0.753484 0.296591
vt 0.905652 0.247149
vt 0.728722 0.000303
vt 0.778165 0.152471
vt 0.648723 0.246516
vt 0.049745 0.987054
vt 0.000303 0.834886
vt 0.129745 0.740841
vt 0.259792 0.456537
vt 0.259847 0.296539
vt 0.412032 0.247149
vt 0.129777 0.000303
vt 0.259186 0.094393
vt 0.209691 0.246543
vt 0.753457 0.716079
vt 0.753457 0.556081
vt 0.905625 0.506638
vt 0.600728 0.247149
vt 0.752878 0.296644
vt 0.752823 0.456643
vt 0.129712 0.493389
vt 0.000303 0.399300
vt 0.049798 0.247149
vt 0.309182 0.246488
vt 0.259792 0.094303
vt 0.389266 0.000303
vt 0.412032 0.506638
vt 0.506032 0.636112
vt 0.000303 0.646146
vt 0.049798 0.493995
vt 0.752851 0.716079
vt 0.600683 0.765522
vt 0.999697 0.376591
vt 0.905652 0.506032
vt 0.519281 0.152471
vt 0.568724 0.000303
vt 0.259186 0.834886
vt 0.209744 0.987054
vt 0.506032 0.376623
vt 0.411943 0.506032
vt 0.049693 0.246488
vt 0.000303 0.094303
vt 0.600638 0.506032
vt 0.506638 0.376558
vt 0.999669 0.636080
vt 0.905625 0.765522
vt 0.209796 0.247204
vt 0.259186 0.399389
vt 0.518675 0.094392
vt 0.469181 0.246543
vn 0.000000 0.525700 0.850700
vn 0.850700 0.000000 -0.525700
vn 0.000000 -0.525700 -0.850700
vn 0.850700 0.000000 0.525700
vn -0.525700 0.850700 0.000000
vn 0.000000 -0.525700 0.850700
vn -0.850700 0.000000 0.525700
vn 0.000000 0.525700 -0.850700
vn -0.850700 0.000000 -0.525700
vn -0.525700 -0.850700 0.000000
vn 0.525700 -0.850700 0.000000
vn 0.525700 0.850700 0.000000
usemtl BaseColor
s off
f 2/1/1 5/2/1 11/3/1
f 7/4/2 13/5/2 15/6/2
f 9/7/3 15/8/3 19/9/3
f 12/10/4 18/11/4 13/12/4
f 1/13/5 4/14/5 8/15/5
f 11/16/6 17/17/6 20/18/6
f 8/19/7 14/20/7 17/21/7
f 1/22/8 3/23/8 9/24/8
f 10/25/9 16/26/9 14/27/9
f 14/28/10 16/29/10 19/30/10
f 13/31/11 18/32/11 20/33/11
f 2/34/12 6/35/12 7/36/12
f 12/37/1 6/38/1 2/1/1
f 12/37/1 2/1/1 11/3/1
f 19/9/3 16/39/3 10/40/3
f 15/6/2 9/41/2 3/42/2
f 3/42/2 7/4/2 15/6/2
f 13/12/4 7/43/4 6/44/4
f 10/40/3 9/7/3 19/9/3
f 8/15/5 5/45/5 2/46/5
f 6/44/4 12/10/4 13/12/4
f 20/18/6 18/47/6 12/48/6
f 2/46/5 1/13/5 8/15/5
f 17/21/7 11/49/7 5/50/7
f 12/48/6 11/16/6 20/18/6
f 10/51/8 4/52/8 1/22/8
f 5/50/7 8/19/7 17/21/7
f 10/51/8 1/22/8 9/24/8
f 20/53/10 17/54/10 14/28/10
f 14/27/9 8/55/9 4/56/9
f 4/56/9 10/25/9 14/27/9
f 20/53/10 14/28/10 19/30/10
f 19/57/11 13/31/11 20/33/11
f 19/57/11 15/58/11 13/31/11
f 7/36/12 3/59/12 1/60/12
f 1/60/12 2/34/12 7/36/12
